<svg xmlns="http://www.w3.org/2000/svg" viewBox="0 0 64 64" role="img" aria-labelledby="title">
  <title id="title">Memora</title>
  <rect width="64" height="64" rx="18" fill="#241f22"/>
  <g transform="translate(-1.23,-0.9) scale(0.329)" fill="#f4d9d5">
    <ellipse cx="101" cy="100" rx="78" ry="80" fill="none" stroke="#f4d9d5" stroke-width="9"/>
    <path d="M46,62 C44.5,86 43.2,112 43,138 L49,138 C51,112 54.5,90 57,71 L95,133 L101,141 L139,70 C141,92 144.8,116 146,138 L159,138 C159.2,112 157.8,86 156,62 L133,62 L105,121 L71,62 Z"/>
    <rect x="38.5" y="59" width="36" height="3"/>
    <rect x="129.5" y="59" width="34" height="3"/>
    <rect x="34" y="135.5" width="24" height="3"/>
    <rect x="140" y="135.5" width="25" height="3"/>
  </g>
</svg>
