<svg xmlns="http://www.w3.org/2000/svg" viewBox="0 0 238 64" role="img" aria-labelledby="title desc">
  <title id="title">Memora</title>
  <desc id="desc">Logo minimaliste Memora</desc>
  <rect width="64" height="64" rx="18" fill="#241f22"/>
  <path d="M18 43V22c0-3.3 3.9-5 6.2-2.7L32 27l7.8-7.7C42.1 17 46 18.7 46 22v21" fill="none" stroke="#f4d9d5" stroke-width="4.5" stroke-linecap="round" stroke-linejoin="round"/>
  <path d="M24 44h16" fill="none" stroke="#d8b46a" stroke-width="4.5" stroke-linecap="round"/>
  <path d="M86 43.5V21.3h5.4l8.1 11.4 8.1-11.4h5.3v22.2h-5.7V30.8l-6.4 8.8h-2.7l-6.4-8.8v12.7H86Zm44.1.4c-6.8 0-11.5-4.7-11.5-11.5s4.7-11.5 11.5-11.5 11.5 4.7 11.5 11.5-4.7 11.5-11.5 11.5Zm0-5.2c3.4 0 5.7-2.5 5.7-6.3s-2.3-6.3-5.7-6.3-5.7 2.5-5.7 6.3 2.3 6.3 5.7 6.3Zm17.2 4.8V21.3h9.8c5.2 0 8.7 3 8.7 7.5 0 3-1.5 5.3-4.1 6.5l5 8.2h-6.4l-4.2-7.2H153v7.2h-5.7Zm5.7-12h3.6c2.1 0 3.5-1.1 3.5-2.9 0-1.8-1.4-2.9-3.5-2.9H153v5.8Zm18.9 12V21.3h15.7v5h-10v3.6h9.2v4.7h-9.2v3.9H188v5h-16.1Zm21.5 0 8.5-22.2h6.2l8.5 22.2h-6l-1.5-4.3h-8.3l-1.5 4.3h-5.9Zm8.8-8.8h5.5l-2.7-7.8-2.8 7.8Z" fill="#241f22"/>
</svg>
